<svg id="Capa_1" enable-background="new 0 0 512 512" height="512" viewBox="0 0 512 512" width="512" xmlns="http://www.w3.org/2000/svg"><g><g><path d="m129.154 0v161.651h126.846l20-86.695-20-74.956z" fill="#fff5f5"/><path d="m382.846 48.865-37.022-17.022-11.843-31.843h-77.981v161.651h126.846z" fill="#e1ebf0"/><g><path d="m77.095 135.552 19.502 376.448h159.403l20-196-20-180.448z" fill="#e1ebf0"/><path d="m434.905 135.552h-178.905v376.448h159.403z" fill="#b4d2d7"/></g><g><path d="m255.954 222.675c-49.039 0-88.935 39.896-88.935 88.935h30c0-32.497 26.438-58.935 58.935-58.935.015 0 .031.001.046.001l10-16.426-10-13.574c-.015 0-.031-.001-.046-.001z" fill="#00b6bd"/><path d="m363.475 288.382-19.091 13.753c-4.743-44.586-42.566-79.436-88.384-79.459v30c28.881.022 52.949 20.931 57.928 48.403l-17.624-12.697-17.535 24.341 51.12 36.829 51.121-36.829z" fill="#00969b"/></g><path d="m333.981 0v48.865h48.865z" fill="#b4d2d7"/></g><g><path d="m255.954 438.636c-28.901 0-52.992-20.917-57.974-48.404l17.624 12.697 17.535-24.341-51.12-36.829-51.12 36.829 17.535 24.341 19.09-13.753c4.745 44.6 42.591 79.46 88.429 79.46.015 0 .031-.001.046-.001l10-16.502-10-13.498c-.014 0-.03.001-.045.001z" fill="#00b6bd"/><path d="m344.889 379.701h-30c0 32.481-26.413 58.908-58.889 58.933v30.001c49.018-.025 88.889-39.911 88.889-88.934z" fill="#00969b"/></g></g></svg>