<svg id="Capa_1" enable-background="new 0 0 512 512" height="512" viewBox="0 0 512 512" width="512" xmlns="http://www.w3.org/2000/svg"><g><g><path d="m19.781 0c-6.505 0-11.778 5.273-11.778 11.779v488.442c0 6.505 5.273 11.779 11.779 11.779h67.982l104.502-20 30-242.867-30-249.133z" fill="#addbfd"/><path d="m364.75 0h-172.484v492l104.999 20h67.485c6.505 0 11.779-5.273 11.779-11.779v-488.442c-.001-6.506-5.274-11.779-11.779-11.779z" fill="#93bdfc"/></g><g><path d="m298.513 79.683h30v288.9h-30z" fill="#07485e"/></g><g><path d="m56.394 79.683h30v288.9h-30z" fill="#446bae"/></g><g><path d="m192.266 78.904h-104.502v-30h104.502l10 12.657z" fill="#446bae"/></g><g><path d="m192.266 399.689h-104.502v-30h104.502l10 15z" fill="#446bae"/></g><g><path d="m87.764 448.424v63.576h104.751l20-31.788-20-31.788z" fill="#446bae"/><path d="m192.515 448.424h104.75v63.576h-104.75z" fill="#07485e"/></g><g><path d="m472.13 28.721c-17.6 0-31.867 14.267-31.867 31.867v31.867l31.867 10 10-36.122z" fill="#e1ebf0"/><path d="m440.263 92.456v295.537l31.015 84.663h.852l20-233.523-20-146.677z" fill="#fff5f5"/></g><g><g><path d="m192.266 48.904h105v30h-105z" fill="#07485e"/></g></g><g><g><path d="m192.266 369.689h105v30h-105z" fill="#07485e"/></g></g><g><path d="m503.997 60.588c0-17.6-14.267-31.867-31.867-31.867v73.734l31.867-10z" fill="#b4d2d7"/><path d="m472.13 92.456v380.2h.771l31.096-83.499v-296.701z" fill="#e1ebf0"/></g></g></svg>