<svg id="Capa_1" enable-background="new 0 0 512 512" height="512" viewBox="0 0 512 512" width="512" xmlns="http://www.w3.org/2000/svg"><g><path d="m155.902 0v512h177.995l20-270-20-242z" fill="#fff5f5"/><path d="m511.891 74.707-49.068-29.068-25.639-45.639h-103.287v512h177.994z" fill="#e1ebf0"/><path d="m437.184 0v74.707h74.707z" fill="#b4d2d7"/><g><g><path d="m.109 84.741 49.643 49.644 30.355-16.213-14.215-42.499-42.499-14.216z" fill="#00969b"/><path d="m46.677 38.174-23.284 23.283 56.714 56.715 16.213-30.355z" fill="#006468"/></g><g><path d="m305.095 402.152 88.573 31.159.789-.789-45.065-56.342-25.984-14.707-22.425 36.567z" fill="#00b6bd"/><path d="m73.036 111.101-29.496 29.496 120.678 120.678 43.638-15.354-69.991-91.198z" fill="#00b6bd"/><path d="m193.714 231.779-29.496 29.496 136.765 136.765 29.496-29.496-61.443-89.727z" fill="#00969b"/></g><g><path d="m394.457 432.522.714-.713-30.261-87.826-4.934-4.935-36.568 22.425z" fill="#00969b"/><path d="m102.532 81.605-29.496 29.496 134.82 134.82 15.354-43.638z" fill="#00969b"/><path d="m255.988 188.706h41.714v193.416h-41.714z" fill="#006468" transform="matrix(.707 -.707 .707 .707 -120.732 279.354)"/></g></g></g></svg>